<svg width="366" height="366" viewBox="0 0 366 366" fill="none" xmlns="http://www.w3.org/2000/svg">
<path d="M181.019 65L180.179 41.6H185.819L184.979 65H181.019Z" fill="white"/>
<path d="M235.393 76.3195L233.689 59.3453L222.006 70.7744L221.701 70.6481L224.173 46.5713L229.649 47.5406L226.347 62.9607L234.711 53.6639L238.761 54.627L237.954 66.9241L250.144 56.387L250.56 56.5592L235.615 76.4113L235.393 76.3195Z" fill="white"/>
<path d="M281.768 79.7902L286.032 85.8359L279.095 85.8571L281.768 79.7902ZM265.837 97.5456L277.101 85.1783L280.835 88.9118L268.467 100.176L265.837 97.5456Z" fill="white"/>
<path d="M292.222 135.724L313.531 126.021L315.586 130.982L293.658 139.189L292.222 135.724Z" fill="white"/>
<path d="M301 181.121L324.4 180.311V185.681L301 184.871V181.121Z" fill="white"/>
<path d="M317.845 229.564L315.756 234.609L313.229 233.497C313.731 234.636 313.992 235.783 314.011 236.939C314.049 238.102 313.854 239.2 313.425 240.235C312.966 241.344 312.286 242.253 311.386 242.963C310.497 243.698 309.458 244.22 308.269 244.529C307.099 244.845 305.856 244.947 304.539 244.835C303.221 244.722 301.907 244.394 300.595 243.85C299.246 243.292 298.009 242.541 296.884 241.599C294.52 239.624 293.189 236.984 292.891 233.678C292.594 230.373 293.444 226.308 295.441 221.486L317.845 229.564ZM295.512 225.704C295.282 228.769 295.484 231.234 296.119 233.099C296.753 234.964 297.565 236.296 298.555 237.096C299.448 237.812 300.487 238.415 301.669 238.905C302.907 239.418 304.155 239.751 305.412 239.903C306.669 240.056 307.786 239.999 308.762 239.733C309.731 239.484 310.411 239.019 310.802 238.337C311.018 237.972 311.203 237.604 311.356 237.235C311.624 236.588 311.808 235.907 311.91 235.191C312.03 234.483 312.048 233.733 311.965 232.941L295.512 225.704Z" fill="white"/>
<path d="M286.21 281.768L280.164 286.032L280.143 279.095L286.21 281.768ZM268.454 265.837L280.822 277.101L277.088 280.835L265.824 268.467L268.454 265.837Z" fill="white"/>
<path d="M229.762 292.435L241.866 304.567L237.597 307.666L230.127 297.707L227.873 311.629L227.485 311.79L225.815 293.648L229.762 292.435Z" fill="white"/>
<path d="M174.246 300.61C177.326 300.61 179.896 300.75 181.956 301.03C184.016 301.31 185.646 301.77 186.846 302.41C188.046 303.05 188.906 303.89 189.426 304.93C189.946 305.97 190.206 307.24 190.206 308.74C190.206 310.68 189.846 312.35 189.126 313.75C188.406 315.15 187.466 316.22 186.306 316.96C185.126 317.72 183.886 318.1 182.586 318.1C181.546 318.1 180.496 317.94 179.436 317.62C178.376 317.3 177.386 316.78 176.466 316.06C175.546 315.34 174.796 314.39 174.216 313.21C173.636 312.05 173.306 310.62 173.226 308.92L185.976 307.48C185.796 306.38 185.296 305.44 184.476 304.66C183.636 303.9 182.376 303.23 180.696 302.65C179.016 302.07 176.826 301.51 174.126 300.97L174.246 300.61ZM178.236 311.38C178.336 312.16 178.566 312.9 178.926 313.6C179.286 314.3 179.746 314.86 180.306 315.28C180.866 315.72 181.486 315.94 182.166 315.94C182.966 315.94 183.656 315.75 184.236 315.37C184.816 314.99 185.266 314.26 185.586 313.18C185.906 312.12 186.066 310.56 186.066 308.5C186.066 308.4 186.066 308.3 186.066 308.2C186.066 308.12 186.056 308.03 186.036 307.93L178.236 311.38Z" fill="white"/>
<path d="M139.291 293.7L131.112 315.64L125.902 313.482L135.632 292.184L139.291 293.7Z" fill="white"/>
<path d="M95.6762 263.968L88.7395 271.583C87.8486 272.559 87.3607 273.301 87.2758 273.811C87.1627 274.32 87.3253 274.793 87.7637 275.232C88.1031 275.571 88.6688 275.953 89.4608 276.377C90.2386 276.816 91.1012 277.141 92.0488 277.353L100.958 269.25L103.568 271.859L92.3033 284.226L88.591 280.514L90.9457 278.371C90.0123 278.428 89.0718 278.364 88.1243 278.181C87.1627 277.983 86.2646 277.678 85.4302 277.268C84.5959 276.858 83.8958 276.37 83.3301 275.805C82.2695 274.744 81.8381 273.733 82.0361 272.771C82.22 271.824 82.8564 270.805 83.9453 269.716C84.0443 269.617 84.1504 269.526 84.2635 269.441C84.3484 269.356 84.4474 269.257 84.5605 269.144L93.0458 261.337L95.6762 263.968Z" fill="white"/>
<path d="M67.7166 223.875C69.2341 224.35 70.4291 224.883 71.3018 225.475C72.1482 226.055 72.7054 226.668 72.9733 227.315C73.3101 228.128 73.1529 228.951 72.502 229.783C71.8325 230.623 70.6963 231.408 69.0932 232.137L61.6022 235.532L62.8306 238.498L62.5258 238.624L51.9275 234.831L51.7783 234.471L57.2031 232.516L54.8526 229.82L58.5943 228.27L59.949 231.541L67.0713 228.98C67.2007 228.927 67.3338 228.882 67.4708 228.847C67.5817 228.801 67.7018 228.752 67.8312 228.698C68.6072 228.377 69.1418 228.047 69.4348 227.709C69.7093 227.379 69.7509 226.983 69.5596 226.521C69.307 225.911 68.6194 225.114 67.4969 224.128L67.7166 223.875Z" fill="white"/>
<path d="M56.66 174.212C57.98 174.212 59.18 174.482 60.26 175.022C61.32 175.562 62.23 176.272 62.99 177.152C63.75 178.032 64.34 178.982 64.76 180.002C65.16 181.022 65.36 182.012 65.36 182.972C65.36 183.932 65.16 184.922 64.76 185.942C64.34 186.962 63.75 187.922 62.99 188.822C62.23 189.702 61.32 190.422 60.26 190.982C59.18 191.522 57.98 191.792 56.66 191.792C55.34 191.792 54.14 191.522 53.06 190.982C51.98 190.422 51.06 189.702 50.3 188.822C49.52 187.922 48.93 186.962 48.53 185.942C48.11 184.922 47.9 183.932 47.9 182.972C47.9 182.012 48.11 181.022 48.53 180.002C48.93 178.982 49.52 178.032 50.3 177.152C51.06 176.272 51.98 175.562 53.06 175.022C54.14 174.482 55.34 174.212 56.66 174.212ZM63.2 182.072C63.2 181.012 62.82 180.202 62.06 179.642C61.28 179.082 59.88 178.802 57.86 178.802C56.06 178.802 54.59 179.082 53.45 179.642C52.31 180.182 51.48 180.842 50.96 181.622C50.42 182.402 50.15 183.152 50.15 183.872C50.15 184.572 50.31 185.172 50.63 185.672C50.95 186.172 51.5 186.552 52.28 186.812C53.04 187.072 54.1 187.202 55.46 187.202C56.68 187.202 57.77 187.042 58.73 186.722C59.69 186.382 60.51 185.952 61.19 185.432C61.85 184.912 62.35 184.362 62.69 183.782C63.03 183.182 63.2 182.612 63.2 182.072Z" fill="white"/>
<path d="M72.4933 138.825L64.9283 136.471L48.1387 138.121L49.1032 132.578L62.5054 133.226L54.758 119.789L54.9025 119.362L66.9049 131.542L73.9742 135.249L72.4933 138.825Z" fill="white"/>
<path d="M99.1713 86.7427C100.105 87.6761 100.762 88.7155 101.144 89.8611C101.512 90.9924 101.653 92.1379 101.568 93.2976C101.484 94.4573 101.229 95.5462 100.805 96.5644C100.366 97.5685 99.8077 98.41 99.1289 99.0888C98.4501 99.7676 97.6086 100.326 96.6045 100.765C95.5863 101.189 94.4903 101.451 93.3165 101.55C92.1568 101.634 91.0043 101.5 89.8587 101.146C88.7132 100.765 87.6738 100.107 86.7404 99.1737C85.807 98.2403 85.1494 97.2008 84.7676 96.0553C84.3999 94.8957 84.2585 93.736 84.3433 92.5763C84.4282 91.3884 84.6898 90.2924 85.1282 89.2883C85.5525 88.2701 86.104 87.4215 86.7828 86.7427C87.4616 86.0639 88.3102 85.5124 89.3284 85.0881C90.3325 84.6497 91.4214 84.3951 92.5952 84.3244C93.7549 84.2396 94.9075 84.3881 96.053 84.7699C97.1985 85.1517 98.238 85.8093 99.1713 86.7427ZM98.238 96.9251C98.9875 96.1755 99.2915 95.3341 99.1501 94.4007C98.9946 93.4532 98.2026 92.2652 96.7742 90.8369C95.5015 89.5641 94.264 88.7226 93.0619 88.3125C91.874 87.8882 90.8204 87.768 89.9012 87.9519C88.9678 88.1216 88.2465 88.461 87.7374 88.9701C87.2424 89.4651 86.9313 90.0025 86.804 90.5823C86.6768 91.1621 86.797 91.8197 87.1647 92.5551C87.5182 93.2764 88.1758 94.1178 89.1375 95.0795C90.0002 95.9422 90.884 96.5998 91.7891 97.0523C92.7084 97.4907 93.5923 97.7665 94.4408 97.8797C95.2752 97.9786 96.0176 97.9433 96.6682 97.7736C97.3329 97.5897 97.8561 97.3069 98.238 96.9251Z" fill="white"/>
<path d="M146.266 66.8135C145.777 67.8817 145.285 68.8107 144.79 69.6004C144.287 70.3717 143.767 70.8683 143.231 71.0902C142.769 71.2816 142.289 71.2206 141.792 70.9072C141.305 70.5678 140.785 69.8628 140.234 68.7924C140.101 69.5183 139.817 70.2423 139.38 70.9645C138.935 71.6682 138.406 72.2986 137.793 72.8558C137.179 73.413 136.549 73.8255 135.903 74.0934C134.775 74.5603 133.814 74.7206 133.017 74.5743C132.22 74.428 131.523 74.0242 130.924 73.363C130.318 72.6832 129.724 71.7712 129.141 70.6269L124.104 60.5041L128.844 58.5409L132.625 68.9242L132.763 69.2568C133.099 70.0698 133.511 70.5922 133.996 70.824C134.501 71.0481 135.196 70.9765 136.083 70.6091C136.6 70.3948 137.18 69.9922 137.823 69.4012C138.466 68.8103 138.995 68.0498 139.411 67.1199L134.082 56.3711L138.794 54.4194L142.814 65.2232L143.124 65.9715C143.4 66.6367 143.654 67.0942 143.888 67.3439C144.132 67.5675 144.475 67.5875 144.919 67.4038C145.067 67.3425 145.235 67.2513 145.423 67.1302C145.629 67.0014 145.85 66.8557 146.086 66.6931L146.266 66.8135Z" fill="white"/>
</svg>
